<?xml version="1.0" encoding="UTF-8"?>
<svg width="64px" height="60px" viewBox="0 0 64 60" version="1.1" xmlns="http://www.w3.org/2000/svg" xmlns:xlink="http://www.w3.org/1999/xlink">
    <title>Artboard</title>
    <g id="Artboard" stroke="none" stroke-width="1" fill="none" fill-rule="evenodd">
        <rect fill="#FFFFFF" x="0" y="0" width="64" height="60"></rect>
        <rect id="Rectangle" stroke="#000000" stroke-width="2" x="6" y="11" width="47" height="31" rx="1"></rect>
        <rect id="Rectangle" stroke="#000000" stroke-width="2" fill="#FFFFFF" x="1" y="41" width="47" height="4" rx="1"></rect>
        <rect id="Rectangle" fill="#FFFFFF" x="34" y="26" width="30" height="25"></rect>
        <g id="school-24px" transform="translate(36.000000, 26.000000)">
            <polygon id="Path" points="0 0 24 0 24 24 0 24"></polygon>
            <path d="M12,3 L1,9 L5,11.18 L5,17.18 L12,21 L19,17.18 L19,11.18 L21,10.09 L21,17 L23,17 L23,9 L12,3 Z M18.82,9 L12,12.72 L5.18,9 L12,5.28 L18.82,9 Z M17,15.99 L12,18.72 L7,15.99 L7,12.27 L12,15 L17,12.27 L17,15.99 Z" id="Shape" fill="#000000" fill-rule="nonzero"></path>
        </g>
        <g id="favorite_border-24px" transform="translate(16.000000, 14.000000)">
            <polygon id="Path" points="0 0 24 0 24 24 0 24"></polygon>
            <path d="M16.5,3 C14.76,3 13.09,3.81 12,5.09 C10.91,3.81 9.24,3 7.5,3 C4.42,3 2,5.42 2,8.5 C2,12.28 5.4,15.36 10.55,20.04 L12,21.35 L13.45,20.03 C18.6,15.36 22,12.28 22,8.5 C22,5.42 19.58,3 16.5,3 Z M12.1,18.55 L12,18.65 L11.9,18.55 C7.14,14.24 4,11.39 4,8.5 C4,6.5 5.5,5 7.5,5 C9.04,5 10.54,5.99 11.07,7.36 L12.94,7.36 C13.46,5.99 14.96,5 16.5,5 C18.5,5 20,6.5 20,8.5 C20,11.39 16.86,14.24 12.1,18.55 Z" id="Shape" fill="#000000" fill-rule="nonzero"></path>
        </g>
    </g>
</svg>