<svg version="1.1" xmlns="http://www.w3.org/2000/svg" xmlns:xlink="http://www.w3.org/1999/xlink" x="0px"
	 y="0px" width="64" height="64" viewBox="0 0 64 64" xml:space="preserve">
<path fill="#FFFFFF" d="M14.6,16.9c-0.4,0-0.8,0.2-1,0.5c-0.2,0.3-0.2,0.7,0,1.1l4.9,8.4c0,0,0,0,0,0l-7.7,13.5c-0.2,0.4-0.2,0.8,0,1.1
		c0.2,0.3,0.5,0.5,0.9,0.5H19c1.1,0,1.6-0.7,2-1.4c0,0,7.5-13.3,7.8-13.8c0,0-5-8.6-5-8.6c-0.4-0.6-0.9-1.4-2-1.4L14.6,16.9
		L14.6,16.9z"/>
<path fill="#FFFFFF" d="M44.9,7c-1.1,0-1.5,0.7-1.9,1.4c0,0-15.5,27.6-16,28.5c0,0,10.2,18.8,10.2,18.8c0.4,0.6,0.9,1.4,2,1.4h7.2
		c0.4,0,0.8-0.2,1-0.5c0.2-0.3,0.2-0.7,0-1.1L37.2,36.9c0,0,0,0,0,0l16-28.2c0.2-0.4,0.2-0.8,0-1.1C53,7.2,52.6,7,52.2,7L44.9,7
		L44.9,7L44.9,7L44.9,7z"/>
</svg>
