<svg version="1.1" xmlns="http://www.w3.org/2000/svg" xmlns:xlink="http://www.w3.org/1999/xlink" x="0px"
	 y="0px" width="64" height="64" viewBox="0 0 64 64" xml:space="preserve">
<path fill="#FFFFFF" d="M58.8,18.5c-0.6-2.4-2.5-4.3-4.9-4.9C49.5,12.4,32,12.4,32,12.4s-17.5,0-21.9,1.2c-2.4,0.6-4.3,2.6-4.9,5
	C4,22.9,4,32,4,32s0,9.1,1.2,13.5c0.6,2.4,2.5,4.3,4.9,4.9c4.4,1.2,21.9,1.2,21.9,1.2s17.5,0,21.9-1.2c2.4-0.6,4.3-2.5,4.9-4.9
	C60,41.1,60,32,60,32S60,22.9,58.8,18.5z M26.4,40.4V23.6L41,32L26.4,40.4z"/>
</svg>
