<svg version="1.1" xmlns="http://www.w3.org/2000/svg" xmlns:xlink="http://www.w3.org/1999/xlink" x="0px"
	 y="0px" width="64" height="64" viewBox="0 0 64 64" xml:space="preserve">
<path fill="#FFFFFF" d="M53.3,7H10.7C8.7,7,7,8.6,7,10.6v42.8c0,2,1.7,3.6,3.7,3.6h42.6c2,0,3.7-1.6,3.7-3.6V10.6C57,8.6,55.3,7,53.3,7z
			 M21.8,49.6h-7.4V25.7h7.4V49.6z M18.1,22.5c-2.4,0-4.3-1.9-4.3-4.3c0-2.4,1.9-4.3,4.3-4.3c2.4,0,4.3,1.9,4.3,4.3
			C22.4,20.6,20.5,22.5,18.1,22.5z M49.6,49.6h-7.4V38c0-2.8,0-6.3-3.9-6.3c-3.9,0-4.4,3-4.4,6.1v11.8h-7.4V25.7h7.1V29h0.1
			c1-1.9,3.4-3.9,7-3.9c7.5,0,8.9,4.9,8.9,11.4V49.6z"/>
</svg>
