<svg version="1.1" xmlns="http://www.w3.org/2000/svg" xmlns:xlink="http://www.w3.org/1999/xlink" x="0px"
	 y="0px" width="64" height="64" viewBox="0 0 64 64" xml:space="preserve">
<path fill="#ffffff" d="M32,11.5c6.7,0,7.5,0,10.1,0.1c2.4,0.1,3.8,0.5,4.6,0.9c1.2,0.5,2,1,2.9,1.9c0.9,0.9,1.4,1.7,1.9,2.9
		c0.3,0.9,0.7,2.2,0.9,4.6c0.1,2.6,0.1,3.4,0.1,10.1s0,7.5-0.1,10.1c-0.1,2.4-0.5,3.8-0.9,4.6c-0.5,1.2-1,2-1.9,2.9
		c-0.9,0.9-1.7,1.4-2.9,1.9c-0.9,0.3-2.2,0.7-4.6,0.9c-2.6,0.1-3.4,0.1-10.1,0.1s-7.5,0-10.1-0.1c-2.4-0.1-3.8-0.5-4.6-0.9
		c-1.2-0.5-2-1-2.9-1.9c-0.9-0.9-1.4-1.7-1.9-2.9c-0.3-0.9-0.7-2.2-0.9-4.6c-0.1-2.6-0.1-3.4-0.1-10.1s0-7.5,0.1-10.1
		c0.1-2.4,0.5-3.8,0.9-4.6c0.5-1.2,1-2,1.9-2.9c0.9-0.9,1.7-1.4,2.9-1.9c0.9-0.3,2.2-0.7,4.6-0.9C24.5,11.5,25.3,11.5,32,11.5 M32,7
		c-6.8,0-7.6,0-10.3,0.2c-2.7,0.1-4.5,0.5-6.1,1.2c-1.6,0.6-3,1.5-4.4,2.9C9.8,12.6,9,14,8.3,15.6c-0.6,1.6-1,3.4-1.2,6.1
		C7,24.4,7,25.2,7,32c0,6.8,0,7.6,0.2,10.3c0.1,2.7,0.5,4.5,1.2,6.1c0.6,1.6,1.5,3,2.9,4.4c1.4,1.4,2.8,2.2,4.4,2.9
		c1.6,0.6,3.4,1,6.1,1.2C24.4,57,25.2,57,32,57s7.6,0,10.3-0.2c2.7-0.1,4.5-0.5,6.1-1.2c1.6-0.6,3-1.5,4.4-2.9
		c1.4-1.4,2.2-2.8,2.9-4.4c0.6-1.6,1-3.4,1.2-6.1C57,39.6,57,38.8,57,32s0-7.6-0.2-10.3c-0.1-2.7-0.5-4.5-1.2-6.1
		c-0.6-1.6-1.5-3-2.9-4.4C51.4,9.8,50,9,48.4,8.3c-1.6-0.6-3.4-1-6.1-1.2C39.6,7,38.8,7,32,7L32,7z"/>
<path fill="#ffffff" d="M32,19.2c-7.1,0-12.8,5.7-12.8,12.8S24.9,44.8,32,44.8S44.8,39.1,44.8,32S39.1,19.2,32,19.2z M32,40.3
		c-4.6,0-8.3-3.7-8.3-8.3s3.7-8.3,8.3-8.3c4.6,0,8.3,3.7,8.3,8.3S36.6,40.3,32,40.3z"/>
<circle fill="#ffffff" cx="45.3" cy="18.7" r="3"/>
</svg>
