<svg version="1.1" xmlns="http://www.w3.org/2000/svg" xmlns:xlink="http://www.w3.org/1999/xlink" x="0px"
	 y="0px" width="64" height="64" viewBox="0 0 64 64" xml:space="preserve">
<path fill="#FFFFFF" d="M22.7,52.3c18.9,0,29.2-15.6,29.2-29.2c0-0.4,0-0.9,0-1.3c2-1.5,3.7-3.3,5.1-5.3c-1.9,0.8-3.9,1.4-5.9,1.6
	c2.1-1.3,3.7-3.3,4.5-5.7c-2,1.2-4.2,2-6.5,2.5c-3.9-4.1-10.4-4.3-14.5-0.4c-2.7,2.5-3.8,6.2-3,9.8c-8.2-0.4-15.9-4.3-21.1-10.7
	c-2.7,4.7-1.3,10.7,3.2,13.7c-1.6,0-3.2-0.5-4.7-1.3c0,0,0,0.1,0,0.1c0,4.9,3.4,9.1,8.2,10.1c-1.5,0.4-3.1,0.5-4.6,0.2
	c1.3,4.2,5.2,7,9.6,7.1c-3.6,2.9-8.1,4.4-12.7,4.4c-0.8,0-1.6-0.1-2.4-0.1C11.7,50.7,17.1,52.3,22.7,52.3"/>
</svg>
