<svg version="1.1" xmlns="http://www.w3.org/2000/svg" xmlns:xlink="http://www.w3.org/1999/xlink" x="0px"
	 y="0px" width="64" height="64" viewBox="0 0 64 64" xml:space="preserve">
<circle cx="32" cy="32" r="32"/>
<g>
	<rect x="20" y="26.4" fill="#FFFFFF" width="6.2" height="1.5"/>
	<rect x="19" y="29.4" fill="#FFFFFF" width="7.2" height="1.5"/>
	<rect x="18" y="32.3" fill="#FFFFFF" width="8.2" height="1.5"/>
	<path fill="#FFFFFF" d="M46,32.5l-1.5-2.1l-0.7-1l-1-1.5h-3.2v-4.5H21v2h1.5v-0.5H38v12.5h-7.6c-0.4-1-1.3-1.7-2.4-1.7
		c-1.1,0-2,0.7-2.4,1.7h-3.2v-2.5H21v4h4.6c0.3,1.1,1.2,1.8,2.4,1.8s2.1-0.8,2.4-1.8h9.2c0.3,1.1,1.2,1.8,2.4,1.8
		c1.1,0,2.1-0.8,2.4-1.8h1.5C45.9,38.8,45.9,32.5,46,32.5z M28,39.2c-0.5,0-1-0.5-1-1c0-0.6,0.5-1,1-1s1,0.4,1,1
		C29,38.7,28.5,39.2,28,39.2z M42,39.2c-0.5,0-1-0.5-1-1c0-0.6,0.5-1,1-1s1,0.4,1,1C43,38.7,42.5,39.2,42,39.2z M42,35.7
		c-1.1,0-2,0.7-2.3,1.7h-0.2v-8h2.5l2.5,3.6v4.4h-0.1C44,36.3,43.1,35.7,42,35.7z"/>
</g>
</svg>
