<svg width="64" height="64" viewBox="0 0 64 64" fill="none" xmlns="http://www.w3.org/2000/svg">
<path d="M32 64C49.6731 64 64 49.6731 64 32C64 14.3269 49.6731 0 32 0C14.3269 0 0 14.3269 0 32C0 49.6731 14.3269 64 32 64Z" fill="black"/>
<path fill-rule="evenodd" clip-rule="evenodd" d="M19.5498 25L32.0498 20L44.5498 25V39.15L32.0498 44.15L19.5498 39.15V25ZM21.0498 38.1499L31.2998 42.2499V30.8999L27.9998 29.5999V35.5999L23.5498 33.8999V27.8499L21.0498 26.8499V38.1499ZM26.9998 29.25V34.15L24.5498 33.2V28.25L26.9998 29.25ZM29.0997 25.7L25.6497 27.1L27.6497 27.9L31.2997 26.5L29.0997 25.7ZM28.9996 28.3999L34.1996 26.4499L29.0996 24.5999L24.3496 26.5499L21.9996 25.5999L32.0496 21.5999L42.0996 25.5999L32.0496 29.5999L28.9996 28.3999ZM32.7998 42.2499L43.0498 38.1499V26.8499L32.7998 30.9499V42.2499Z" fill="white"/>
</svg>
