<svg version="1.1" xmlns="http://www.w3.org/2000/svg" xmlns:xlink="http://www.w3.org/1999/xlink" x="0px"
	 y="0px" width="64" height="64" viewBox="0 0 64 64" xml:space="preserve">
<circle cx="32" cy="32" r="32"/>
<g>
	<path fill="#FFFFFF" d="M44.5,30.5c0-6-5-11-11-11s-11,5-11,11H24c0-5.2,4.2-9.5,9.5-9.5s9.5,4.2,9.5,9.5S38.8,40,33.5,40H22.4
		l1.9-1.9l-1-1l-3.8,3.7l3.7,3.7l1-1l-1.9-1.9h11.2l0,0C39.6,41.5,44.5,36.5,44.5,30.5z"/>
	<path fill="#FFFFFF" d="M39.3,33.8v-6.5L33.6,25l-5.7,2.3v6.5l5.7,2.3L39.3,33.8z M37.8,32.8l-3.5,1.4v-3.9l3.5-1.4V32.8z
		 M33.6,26.5l3,1.2l-3,1.2l-3-1.2L33.6,26.5z M32.8,34.2l-3.5-1.4v-3.9l3.5,1.4V34.2z M33.6,29.8L33.6,29.8L33.6,29.8L33.6,29.8z"/>
</g>
</svg>
