<svg width="40" height="26" viewBox="0 0 40 26" fill="none" xmlns="http://www.w3.org/2000/svg">
<rect width="40" height="26" fill="none" />
<path d="M16.1328 19.2892H23.8675V6.71042H16.1328V19.2892Z" fill="#F06022"/>
<path d="M16.931 13C16.929 11.7904 17.204 10.596 17.7356 9.50662C18.2671 8.41726 19.0413 7.46127 20 6.7105C18.588 5.60088 16.8375 4.99788 15.0343 5.00004C12.8988 5.01349 10.8554 5.86227 9.3501 7.3611C7.84484 8.85992 7 10.8871 7 13C7 15.1129 7.84484 17.1401 9.3501 18.6389C10.8554 20.1377 12.8988 20.9865 15.0343 21C16.8375 21.0021 18.588 20.3991 20 19.2895C19.0413 18.5387 18.2671 17.5827 17.7356 16.4934C17.204 15.404 16.929 14.2096 16.931 13" fill="#EA1D25"/>
<path d="M32.9999 13C33.0067 15.115 32.1641 17.1461 30.6573 18.6463C29.1506 20.1466 27.1032 20.9933 24.9656 21C23.1624 21.0022 21.4119 20.3992 19.9999 19.2895C20.957 18.5374 21.7301 17.5811 22.2615 16.4921C22.7929 15.403 23.0689 14.2093 23.0689 13C23.0689 11.7907 22.7929 10.597 22.2615 9.50793C21.7301 8.41889 20.957 7.46262 19.9999 6.71047C21.4119 5.60082 23.1624 4.99781 24.9656 5.00001C27.1032 5.00675 29.1506 5.85339 30.6573 7.35367C32.1641 8.85395 33.0067 10.885 32.9999 13" fill="#F79D1D"/>
</svg>
